<svg width="240" height="40" viewBox="0 0 240 40" fill="none" xmlns="http://www.w3.org/2000/svg">
<path d="M5.31726 32.5244C4.35534 31.5861 3.49211 30.5782 2.81959 29.4318C2.20946 28.3918 1.66053 27.3026 1.19669 26.1854C0.82809 25.2977 0.59011 24.3448 0.367637 23.4023C0.215232 22.7567 0.16568 22.0813 0.112391 21.4156C0.0481473 20.6131 -0.0134924 19.8059 0.00258431 19.0023C0.0163311 18.3153 0.12678 17.6284 0.221879 16.9455C0.29861 16.3945 0.374308 15.8368 0.525228 15.3048C0.773426 14.4297 1.04958 13.5596 1.37583 12.7128C1.62674 12.0615 1.94082 11.4299 2.28546 10.8252C2.63547 10.211 3.05332 9.63763 3.44871 9.0516C4.05508 8.15287 4.79232 7.37169 5.57321 6.63986C6.1064 6.14017 6.67402 5.6729 7.26272 5.24455C8.30725 4.48452 9.38672 3.78251 10.6163 3.3645C11.3654 3.1098 12.0917 2.77536 12.8506 2.56151C13.5327 2.36933 14.2416 2.25807 14.9457 2.17442C15.775 2.07588 16.6134 1.98226 17.4451 2.00288C18.3206 2.02458 19.1933 2.18008 20.0665 2.28379C21.1935 2.41765 22.2686 2.77278 23.3119 3.20314C24.1618 3.55374 24.9918 3.97377 25.7885 4.43965C26.9617 5.12563 28.0407 5.95657 28.9948 6.94935C29.2429 7.20749 29.4873 7.46971 29.7435 7.71901C29.9508 7.92066 29.9075 8.08128 29.7198 8.2687C29.2725 8.71549 28.8372 9.1751 28.3971 9.62955C27.5127 10.5426 26.6284 11.4557 25.7441 12.3688C25.4733 12.6484 25.2027 12.9283 24.9283 13.2119C21.4055 9.25532 17.2253 8.17685 12.5554 10.5552C8.08192 12.8334 6.86706 17.2887 7.13311 20.5391C7.30658 22.6584 8.05213 24.5879 9.39118 26.2545C10.7253 27.9149 12.3816 29.0424 14.3792 29.6518C16.3996 30.2681 18.4087 30.1632 20.4106 29.505C20.4202 29.5324 20.4297 29.5597 20.4393 29.587C20.1533 29.9027 19.8719 30.2229 19.5802 30.5328C19.1788 30.9593 18.7707 31.3789 18.3636 31.7996C17.3709 32.8253 16.3794 33.8523 15.3831 34.8742C14.7526 35.5209 14.1203 36.1663 13.4723 36.794C13.3809 36.8826 13.1776 36.928 13.0558 36.8905C12.1729 36.6186 11.2744 36.3778 10.4266 36.0136C9.63523 35.6736 8.8731 35.238 8.14763 34.7636C7.34057 34.2359 6.58552 33.6225 5.81702 33.0337C5.6364 32.8952 5.49271 32.7055 5.31726 32.5244Z" fill="#FF0FA6"/>
<path d="M29.9849 36.3963C29.9927 36.9569 30.1264 37.0015 29.4259 36.9999C27.3555 36.9954 25.2852 36.9985 23.2148 36.9982C22.8402 36.9982 22.8144 36.9721 22.8143 36.59C22.814 33.6097 22.816 30.6294 22.8103 27.6492C22.8099 27.4219 22.876 27.2536 23.0319 27.0964C23.6775 26.4458 24.3175 25.7892 24.9554 25.1304C25.5869 24.4783 26.2109 23.8185 26.8425 23.1665C27.7851 22.1936 28.7326 21.2257 29.6735 20.2511C29.7368 20.1855 29.7625 20.0812 29.8122 19.9818C30.0845 20.2394 29.9569 20.4723 29.9695 20.7107C29.9231 20.872 29.8809 20.9953 29.8805 21.1187C29.8759 22.5636 29.8775 24.0085 29.8775 25.4535C29.8775 28.9654 29.8764 32.4774 29.8821 35.9893C29.8823 36.125 29.9491 36.2606 29.9849 36.3963Z" fill="#FF0FA6"/>
<path d="M29.9893 36.3683C29.9491 36.2607 29.8823 36.1251 29.8821 35.9894C29.8763 32.4774 29.8775 28.9655 29.8775 25.4535C29.8775 24.0086 29.8758 22.5637 29.8805 21.1188C29.8808 20.9953 29.923 20.8721 29.9654 20.7375C29.988 21.2276 29.9938 21.7288 29.9938 22.23C29.9943 26.9335 29.9938 31.6369 29.9893 36.3683Z" fill="#F417A2"/>
<path d="M62.3743 34.5759C60.3553 38.2032 57.3367 40.0491 53.1761 39.999C51.2973 39.9763 49.4179 39.9951 47.4978 39.9951C47.4978 38.553 47.4978 37.1608 47.4978 35.6955C49.3972 35.6955 51.2746 35.64 53.1474 35.7091C55.6959 35.803 58.227 34.276 58.7945 31.5522C58.9824 30.6501 58.9431 29.7015 59.0219 28.5704C55.7135 30.775 52.3309 31.4384 48.6904 30.271C46.2025 29.4732 44.2209 27.9674 42.804 25.7972C39.9471 21.4214 40.531 15.6341 44.2182 11.9575C47.9304 8.25602 54.01 7.35394 59.0872 11.0049C60.0897 9.54919 61.4035 8.70421 63.3532 9.32542C63.3532 9.5395 63.3532 9.82892 63.3532 10.1183C63.3532 16.8255 63.3484 23.5326 63.357 30.2397C63.3589 31.7421 63.0377 33.1632 62.3743 34.5759ZM47.9908 25.0516C48.835 25.4634 49.6409 26.0025 50.53 26.265C54.4757 27.4303 58.8307 24.2791 58.9188 20.2048C58.9807 17.3401 58.9482 14.4735 58.9519 11.6077C58.9521 11.4707 58.8943 11.3336 58.8194 11.0005C57.7668 12.0931 56.828 13.0676 55.899 14.0319C51.9666 11.8794 48.2101 13.4389 46.4853 16.0565C44.4493 19.1465 45.3462 23.0096 47.9908 25.0516Z" fill="black"/>
<path d="M66.1885 16.6343C67.0518 12.7397 70.9334 9.2434 75.0688 8.59C78.2689 8.08438 81.1643 8.79481 83.7688 10.699C84.4008 10.1187 84.9487 9.3357 85.6988 9.01119C86.3599 8.72518 87.2468 8.95135 88.0797 8.95135C88.0797 16.169 88.0797 23.3491 88.0797 30.5698C86.6899 30.5698 85.3072 30.5698 83.8696 30.5698C83.8696 29.8578 83.8696 29.1646 83.8696 28.3153C79.4928 31.1918 75.0709 31.4662 70.7244 28.6747C66.9983 26.2818 64.9003 21.6238 66.1885 16.6343ZM70.8842 22.4812C70.9608 22.6224 71.0368 22.764 71.1139 22.905C72.7385 25.8753 76.8913 27.06 79.9611 25.5745C82.6419 24.2773 84.6685 20.7928 83.3574 17.1992C82.029 13.5585 77.8006 11.7035 74.1645 13.3694C70.671 14.9701 69.2531 18.8047 70.8842 22.4812Z" fill="black"/>
<path d="M110.53 8.45041C112.777 8.57952 114.423 9.18849 116.782 10.7614C117.769 9.27938 119.091 8.46765 121 9.05904C121 16.1267 121 23.2575 121 30.445C119.634 30.445 118.257 30.445 116.769 30.445C116.769 29.7843 116.769 29.1048 116.769 28.3572C111.111 32.1145 105.633 30.5517 102.542 27.8537C98.876 24.6546 97.7271 19.6917 99.5446 15.3223C101.37 10.9344 105.655 8.23389 110.53 8.45041ZM107.919 13.0507C103.678 14.3932 101.941 18.9291 103.867 22.6419C105.141 25.0988 107.959 26.6896 111.028 26.1415C115.056 25.4219 117.349 21.7921 116.545 18.1132C115.684 14.175 111.971 12.0526 107.919 13.0507Z" fill="black"/>
<path d="M91.748 14.4587C91.748 12.5997 91.748 10.8218 91.748 8.9978C93.2112 8.9978 94.616 8.9978 96.0756 8.9978C96.0756 16.16 96.0756 23.3324 96.0756 30.5427C94.6567 30.5427 93.2251 30.5427 91.748 30.5427C91.748 25.1788 91.748 19.8593 91.748 14.4587Z" fill="black"/>
<path d="M95.3227 0.307357C96.906 1.25993 97.3883 2.94197 96.5428 4.39125C95.7381 5.77056 94.0232 6.25749 92.5745 5.51803C91.1388 4.78523 90.5609 3.07781 91.255 1.61938C91.9528 0.153053 93.6223 -0.403351 95.3227 0.307357Z" fill="black"/>
<path d="M127.322 9.076L127.496 15.92L127.264 15.34C127.96 13.2907 129.197 11.6667 130.976 10.468C132.793 9.26933 134.785 8.67 136.95 8.67C138.149 8.67 139.251 8.94067 140.256 9.482C141.3 9.98467 142.151 10.6807 142.808 11.57C143.465 12.4207 143.813 13.3873 143.852 14.47L143.62 14.818C144.355 12.8073 145.592 11.28 147.332 10.236C149.072 9.192 150.986 8.67 153.074 8.67C155.123 8.67 156.747 9.25 157.946 10.41C159.183 11.57 159.841 12.9813 159.918 14.644V31H158.758V14.934C158.719 13.5807 158.217 12.4013 157.25 11.396C156.283 10.352 154.891 9.772 153.074 9.656C151.489 9.656 150 10.0233 148.608 10.758C147.216 11.4927 146.075 12.498 145.186 13.774C144.297 15.0113 143.813 16.4033 143.736 17.95V31H142.634V14.934C142.557 13.5807 142.035 12.4013 141.068 11.396C140.101 10.352 138.709 9.772 136.892 9.656C135.268 9.656 133.741 10.0427 132.31 10.816C130.918 11.5507 129.777 12.5753 128.888 13.89C128.037 15.166 127.612 16.6353 127.612 18.298V31H126.452V9.076H127.322ZM171.588 31.464C169.538 31.464 167.914 30.8647 166.716 29.666C165.517 28.4287 164.879 26.8433 164.802 24.91V9.076H165.962V24.736C166 26.3213 166.503 27.6553 167.47 28.738C168.475 29.782 169.925 30.3427 171.82 30.42C173.366 30.42 174.836 30.0527 176.228 29.318C177.658 28.5447 178.799 27.5007 179.65 26.186C180.539 24.8713 180.984 23.3827 180.984 21.72V9.076H182.144V31H181.158L181.042 24.272L181.216 24.794C180.868 26.0313 180.21 27.1527 179.244 28.158C178.277 29.1633 177.117 29.9753 175.764 30.594C174.41 31.174 173.018 31.464 171.588 31.464ZM191.531 31.464C190.449 31.464 189.25 31.2707 187.935 30.884C186.659 30.4587 185.596 29.724 184.745 28.68L185.441 27.984C186.021 28.7187 186.853 29.318 187.935 29.782C189.018 30.246 190.217 30.478 191.531 30.478C192.459 30.478 193.349 30.3233 194.199 30.014C195.089 29.7047 195.823 29.1827 196.403 28.448C196.983 27.6747 197.273 26.65 197.273 25.374C197.273 24.214 196.964 23.3053 196.345 22.648C195.727 21.952 194.934 21.43 193.967 21.082C193.039 20.6953 192.053 20.328 191.009 19.98C189.579 19.4773 188.322 18.8393 187.239 18.066C186.157 17.2927 185.615 16.0553 185.615 14.354C185.615 13.1167 185.886 12.092 186.427 11.28C187.007 10.468 187.761 9.84933 188.689 9.424C189.617 8.99867 190.584 8.786 191.589 8.786C192.479 8.786 193.484 8.97933 194.605 9.366C195.727 9.75267 196.713 10.41 197.563 11.338L196.925 12.092C196.268 11.28 195.417 10.7 194.373 10.352C193.329 10.004 192.421 9.83 191.647 9.83C190.951 9.83 190.217 9.98467 189.443 10.294C188.709 10.5647 188.071 11.0287 187.529 11.686C186.988 12.3433 186.717 13.194 186.717 14.238C186.717 15.166 186.949 15.9393 187.413 16.558C187.877 17.138 188.477 17.6213 189.211 18.008C189.985 18.356 190.797 18.6847 191.647 18.994C192.691 19.3807 193.735 19.7867 194.779 20.212C195.823 20.6373 196.674 21.2367 197.331 22.01C198.027 22.7447 198.375 23.7693 198.375 25.084C198.375 26.36 198.105 27.4813 197.563 28.448C197.061 29.376 196.307 30.1107 195.301 30.652C194.296 31.1933 193.039 31.464 191.531 31.464ZM201.003 9.076H202.163V31H201.003V9.076ZM200.307 2.174C200.307 1.826 200.423 1.536 200.655 1.304C200.925 1.03333 201.254 0.897997 201.641 0.897997C201.989 0.897997 202.279 1.03333 202.511 1.304C202.781 1.536 202.917 1.826 202.917 2.174C202.917 2.522 202.781 2.83133 202.511 3.102C202.279 3.334 201.989 3.45 201.641 3.45C201.254 3.45 200.925 3.334 200.655 3.102C200.423 2.83133 200.307 2.522 200.307 2.174ZM223.365 28.854C222.36 29.6273 221.239 30.246 220.001 30.71C218.803 31.1353 217.527 31.348 216.173 31.348C214.047 31.348 212.113 30.8453 210.373 29.84C208.672 28.8347 207.299 27.4813 206.255 25.78C205.25 24.0787 204.747 22.1647 204.747 20.038C204.747 17.9113 205.25 15.9973 206.255 14.296C207.299 12.556 208.672 11.1833 210.373 10.178C212.113 9.134 214.027 8.612 216.115 8.612C217.507 8.612 218.822 8.844 220.059 9.308C221.297 9.73333 222.399 10.352 223.365 11.164L222.727 11.976C221.838 11.28 220.833 10.7193 219.711 10.294C218.59 9.83 217.411 9.598 216.173 9.598C214.24 9.598 212.5 10.0813 210.953 11.048C209.407 11.976 208.169 13.2327 207.241 14.818C206.352 16.3647 205.907 18.1047 205.907 20.038C205.907 21.9327 206.352 23.6727 207.241 25.258C208.169 26.8047 209.407 28.042 210.953 28.97C212.539 29.898 214.279 30.362 216.173 30.362C217.411 30.362 218.571 30.1687 219.653 29.782C220.775 29.3567 221.78 28.796 222.669 28.1L223.365 28.854Z" fill="black"/>
</svg>
