<svg width="512" height="580" viewBox="0 0 512 580" fill="none" xmlns="http://www.w3.org/2000/svg">
<path d="M91.0887 506.508C74.6103 490.939 59.8224 474.215 48.3017 455.192C37.8497 437.934 28.4461 419.86 20.5001 401.323C14.1858 386.592 10.109 370.78 6.2979 355.141C3.68709 344.428 2.83822 333.221 1.92534 322.175C0.8248 308.858 -0.231135 295.463 0.0442713 282.129C0.279764 270.728 2.17184 259.33 3.80095 247.999C5.11542 238.855 6.41218 229.603 8.99756 220.773C13.2494 206.253 17.9801 191.815 23.569 177.764C27.8674 166.957 33.2477 156.476 39.1516 146.441C45.1475 136.25 52.3057 126.736 59.0791 117.011C69.4666 102.098 82.096 89.1355 95.4733 76.9918C104.607 68.7001 114.331 60.9466 124.416 53.8387C142.31 41.2271 160.802 29.5783 181.865 22.6419C194.699 18.4155 207.14 12.8659 220.141 9.31753C231.826 6.12847 243.969 4.28236 256.03 2.89419C270.237 1.25913 284.599 -0.294425 298.848 0.0477497C313.845 0.407918 328.795 2.98822 343.754 4.70906C363.061 6.93023 381.479 12.8231 399.351 19.9644C413.91 25.782 428.128 32.7519 441.777 40.4825C461.875 51.8654 480.359 65.6536 496.703 82.1274C500.952 86.4108 505.14 90.7621 509.529 94.8988C513.079 98.2449 512.338 100.91 509.123 104.02C501.46 111.434 494.003 119.061 486.463 126.602C471.314 141.753 456.164 156.904 441.016 172.056C436.377 176.696 431.742 181.339 427.04 186.045C366.692 120.392 295.083 102.496 215.083 141.961C138.449 179.765 117.638 253.695 122.196 307.63C125.167 342.796 137.939 374.814 160.878 402.468C183.732 430.02 212.106 448.73 246.327 458.841C280.938 469.068 315.356 467.328 349.65 456.406C349.813 456.86 349.977 457.314 350.14 457.768C345.241 463.005 340.421 468.319 335.424 473.461C328.548 480.538 321.556 487.501 314.582 494.482C297.577 511.502 280.592 528.543 263.525 545.5C252.723 556.232 241.892 566.94 230.791 577.357C229.224 578.827 225.742 579.58 223.656 578.957C208.531 574.446 193.139 570.45 178.616 564.407C165.059 558.766 152.003 551.536 139.575 543.665C125.75 534.909 112.815 524.731 99.65 514.959C96.5558 512.662 94.0943 509.513 91.0887 506.508Z" fill="#FF0FA6"/>
<path d="M511.664 562.757C511.796 572.06 514.088 572.8 502.087 572.774C466.621 572.699 431.154 572.75 395.687 572.745C389.27 572.745 388.827 572.313 388.826 565.972C388.821 516.518 388.856 467.065 388.757 417.612C388.75 413.841 389.882 411.047 392.553 408.44C403.613 397.643 414.577 386.748 425.505 375.816C436.322 364.996 447.012 354.047 457.832 343.229C473.979 327.084 490.211 311.024 506.33 294.852C507.414 293.764 507.853 292.032 508.705 290.382C513.369 294.656 511.185 298.521 511.399 302.477C510.604 305.155 509.882 307.2 509.875 309.248C509.796 333.224 509.824 357.201 509.824 381.177C509.824 439.453 509.804 497.729 509.903 556.005C509.907 558.257 511.051 560.507 511.664 562.757Z" fill="#FF0FA6"/>
</svg>
